<mxfile host="app.diagrams.net" modified="2023-07-08T23:14:22.482Z" agent="Mozilla/5.0 (Windows NT 10.0; Win64; x64) AppleWebKit/537.36 (KHTML, like Gecko) Chrome/114.0.0.0 Safari/537.36" etag="YBIA0rLnXvuf3ATl6jYR" version="21.6.1" type="github">
  <diagram name="PÃ¡gina-1" id="vVoyAeHp4Rk1YM-1fCIQ">
    <mxGraphModel dx="1665" dy="1622" grid="1" gridSize="10" guides="1" tooltips="1" connect="1" arrows="1" fold="1" page="1" pageScale="1" pageWidth="827" pageHeight="1169" math="0" shadow="0">
      <root>
        <mxCell id="0" />
        <mxCell id="1" parent="0" />
        <mxCell id="tbejQX52NWhL7G9Jqi1e-33" value="PCSrc" style="edgeStyle=orthogonalEdgeStyle;rounded=0;orthogonalLoop=1;jettySize=auto;html=1;exitX=1;exitY=0.38;exitDx=0;exitDy=0;exitPerimeter=0;labelPosition=left;verticalLabelPosition=middle;align=left;verticalAlign=middle;textDirection=ltr;entryX=1;entryY=0.5;entryDx=0;entryDy=0;entryPerimeter=0;" parent="1" source="tbejQX52NWhL7G9Jqi1e-9" target="FmY12MPKPxn2fFbcgKqL-1" edge="1">
          <mxGeometry x="-0.9892" relative="1" as="geometry">
            <mxPoint x="550" y="-5" as="targetPoint" />
            <Array as="points">
              <mxPoint x="570" y="-5" />
              <mxPoint x="570" y="-160" />
              <mxPoint x="-617" y="-160" />
            </Array>
            <mxPoint as="offset" />
          </mxGeometry>
        </mxCell>
        <mxCell id="tbejQX52NWhL7G9Jqi1e-34" value="RegWrite" style="edgeStyle=orthogonalEdgeStyle;rounded=0;orthogonalLoop=1;jettySize=auto;html=1;exitX=1;exitY=0.46;exitDx=0;exitDy=0;exitPerimeter=0;labelPosition=left;verticalLabelPosition=middle;align=left;verticalAlign=middle;textDirection=ltr;entryX=0.67;entryY=0;entryDx=0;entryDy=0;entryPerimeter=0;" parent="1" source="tbejQX52NWhL7G9Jqi1e-9" target="FmY12MPKPxn2fFbcgKqL-13" edge="1">
          <mxGeometry x="-0.9761" relative="1" as="geometry">
            <mxPoint x="550" y="15" as="targetPoint" />
            <Array as="points">
              <mxPoint x="570" y="15" />
              <mxPoint x="570" y="230" />
              <mxPoint x="177" y="230" />
            </Array>
            <mxPoint as="offset" />
          </mxGeometry>
        </mxCell>
        <mxCell id="tbejQX52NWhL7G9Jqi1e-35" value="MemWrite" style="edgeStyle=orthogonalEdgeStyle;rounded=0;orthogonalLoop=1;jettySize=auto;html=1;exitX=1;exitY=0.54;exitDx=0;exitDy=0;exitPerimeter=0;labelPosition=left;verticalLabelPosition=middle;align=left;verticalAlign=middle;textDirection=ltr;entryX=0.67;entryY=0;entryDx=0;entryDy=0;entryPerimeter=0;" parent="1" source="tbejQX52NWhL7G9Jqi1e-9" target="FmY12MPKPxn2fFbcgKqL-44" edge="1">
          <mxGeometry x="-0.9727" relative="1" as="geometry">
            <mxPoint x="550" y="35" as="targetPoint" />
            <mxPoint as="offset" />
          </mxGeometry>
        </mxCell>
        <mxCell id="tbejQX52NWhL7G9Jqi1e-36" value="&lt;font color=&quot;#00ff00&quot;&gt;MovFlag&lt;/font&gt;" style="edgeStyle=orthogonalEdgeStyle;rounded=0;orthogonalLoop=1;jettySize=auto;html=1;exitX=1;exitY=0.62;exitDx=0;exitDy=0;exitPerimeter=0;fillColor=#d5e8d4;strokeColor=#82b366;labelPosition=left;verticalLabelPosition=middle;align=left;verticalAlign=middle;textDirection=ltr;entryX=0.942;entryY=0.527;entryDx=0;entryDy=0;entryPerimeter=0;" parent="1" source="tbejQX52NWhL7G9Jqi1e-9" target="FmY12MPKPxn2fFbcgKqL-42" edge="1">
          <mxGeometry x="-0.9755" relative="1" as="geometry">
            <mxPoint x="349.9999999999999" y="115.17391304347831" as="targetPoint" />
            <Array as="points">
              <mxPoint x="540" y="55" />
              <mxPoint x="540" y="440" />
              <mxPoint x="851" y="440" />
            </Array>
            <mxPoint as="offset" />
          </mxGeometry>
        </mxCell>
        <mxCell id="FmY12MPKPxn2fFbcgKqL-51" value="clk" style="edgeStyle=orthogonalEdgeStyle;rounded=0;orthogonalLoop=1;jettySize=auto;html=1;exitX=0.33;exitY=0;exitDx=0;exitDy=0;exitPerimeter=0;startArrow=classic;startFill=1;endArrow=none;endFill=0;" parent="1" source="tbejQX52NWhL7G9Jqi1e-9" edge="1">
          <mxGeometry x="1" relative="1" as="geometry">
            <mxPoint x="403.3157894736844" y="-135" as="targetPoint" />
            <mxPoint as="offset" />
          </mxGeometry>
        </mxCell>
        <mxCell id="HjcfJML174UiBPMMvX2T-2" value="LinkFlag" style="edgeStyle=orthogonalEdgeStyle;rounded=0;orthogonalLoop=1;jettySize=auto;html=1;exitX=1;exitY=0.69;exitDx=0;exitDy=0;exitPerimeter=0;entryX=1;entryY=0.56;entryDx=0;entryDy=0;entryPerimeter=0;fillColor=#fad9d5;strokeColor=#ae4132;align=left;fontColor=#ff0000;" edge="1" parent="1" source="tbejQX52NWhL7G9Jqi1e-9" target="FmY12MPKPxn2fFbcgKqL-13">
          <mxGeometry x="-0.971" relative="1" as="geometry">
            <Array as="points">
              <mxPoint x="530" y="73" />
              <mxPoint x="530" y="383" />
            </Array>
            <mxPoint as="offset" />
          </mxGeometry>
        </mxCell>
        <mxCell id="tbejQX52NWhL7G9Jqi1e-9" value="&lt;div style=&quot;color: rgb(212, 212, 212); background-color: rgb(30, 30, 30); font-family: Consolas, &amp;quot;Courier New&amp;quot;, monospace; font-size: 14px; line-height: 19px;&quot;&gt;&lt;div style=&quot;line-height: 19px;&quot;&gt;condlogic&lt;/div&gt;&lt;/div&gt;" style="rounded=1;whiteSpace=wrap;html=1;absoluteArcSize=1;arcSize=14;strokeWidth=2;points=[[0,0.08,0,0,0],[0,0.15,0,0,0],[0,0.23,0,0,0],[0,0.31,0,0,0],[0,0.38,0,0,0],[0,0.46,0,0,0],[0,0.54,0,0,0],[0,0.62,0,0,0],[0,0.69,0,0,0],[0,0.77,0,0,0],[0,0.85,0,0,0],[0,0.92,0,0,0],[0.33,0,0,0,0],[0.33,1,0,0,0],[0.67,0,0,0,0],[0.67,1,0,0,0],[1,0.08,0,0,0],[1,0.15,0,0,0],[1,0.23,0,0,0],[1,0.31,0,0,0],[1,0.38,0,0,0],[1,0.46,0,0,0],[1,0.54,0,0,0],[1,0.62,0,0,0],[1,0.69,0,0,0],[1,0.77,0,0,0],[1,0.85,0,0,0],[1,0.92,0,0,0]];" parent="1" vertex="1">
          <mxGeometry x="370" y="-100" width="100" height="250" as="geometry" />
        </mxCell>
        <mxCell id="FmY12MPKPxn2fFbcgKqL-5" value="PCNext[31:0]" style="edgeStyle=orthogonalEdgeStyle;rounded=0;orthogonalLoop=1;jettySize=auto;html=1;exitX=0.5;exitY=0;exitDx=0;exitDy=0;exitPerimeter=0;entryX=0;entryY=0.5;entryDx=0;entryDy=0;entryPerimeter=0;align=left;" parent="1" source="FmY12MPKPxn2fFbcgKqL-1" target="FmY12MPKPxn2fFbcgKqL-3" edge="1">
          <mxGeometry x="-0.9048" relative="1" as="geometry">
            <Array as="points">
              <mxPoint x="-595" y="320" />
            </Array>
            <mxPoint as="offset" />
          </mxGeometry>
        </mxCell>
        <mxCell id="FmY12MPKPxn2fFbcgKqL-1" value="&lt;div style=&quot;color: rgb(212, 212, 212); background-color: rgb(30, 30, 30); font-family: Consolas, &amp;quot;Courier New&amp;quot;, monospace; font-size: 14px; line-height: 19px;&quot;&gt;&lt;div style=&quot;line-height: 19px;&quot;&gt;mux2&lt;/div&gt;&lt;/div&gt;&lt;div style=&quot;color: rgb(212, 212, 212); background-color: rgb(30, 30, 30); font-family: Consolas, &amp;quot;Courier New&amp;quot;, monospace; font-size: 14px; line-height: 19px;&quot;&gt;pcmux&lt;/div&gt;" style="verticalLabelPosition=middle;verticalAlign=middle;html=1;shape=trapezoid;perimeter=trapezoidPerimeter;whiteSpace=wrap;size=0.125;arcSize=10;flipV=1;labelPosition=center;align=center;strokeColor=default;fontFamily=Helvetica;fontSize=12;fontColor=default;fillColor=default;direction=south;rounded=0;shadow=0;points=[[0,0.5,0,0,0],[0.25,1,0,0,0],[0.5,0,0,0,0],[0.75,1,0,0,0],[1,0.5,0,0,0]];" parent="1" vertex="1">
          <mxGeometry x="-640" y="270" width="45" height="100" as="geometry" />
        </mxCell>
        <mxCell id="FmY12MPKPxn2fFbcgKqL-21" style="edgeStyle=orthogonalEdgeStyle;rounded=0;orthogonalLoop=1;jettySize=auto;html=1;exitX=1;exitY=0.5;exitDx=0;exitDy=0;exitPerimeter=0;entryX=0;entryY=0.33;entryDx=0;entryDy=0;entryPerimeter=0;" parent="1" source="FmY12MPKPxn2fFbcgKqL-3" target="FmY12MPKPxn2fFbcgKqL-18" edge="1">
          <mxGeometry relative="1" as="geometry" />
        </mxCell>
        <mxCell id="FmY12MPKPxn2fFbcgKqL-22" value="PC[31:0]" style="edgeStyle=orthogonalEdgeStyle;rounded=0;orthogonalLoop=1;jettySize=auto;html=1;exitX=1;exitY=0.5;exitDx=0;exitDy=0;exitPerimeter=0;entryX=0;entryY=0.25;entryDx=0;entryDy=0;entryPerimeter=0;" parent="1" source="FmY12MPKPxn2fFbcgKqL-3" target="FmY12MPKPxn2fFbcgKqL-6" edge="1">
          <mxGeometry x="-0.8229" relative="1" as="geometry">
            <Array as="points">
              <mxPoint x="-360" y="320" />
              <mxPoint x="-360" y="550" />
              <mxPoint x="-322" y="550" />
            </Array>
            <mxPoint as="offset" />
          </mxGeometry>
        </mxCell>
        <mxCell id="FmY12MPKPxn2fFbcgKqL-3" value="&lt;div style=&quot;color: rgb(212, 212, 212); background-color: rgb(30, 30, 30); font-family: Consolas, &amp;quot;Courier New&amp;quot;, monospace; font-size: 14px; line-height: 19px;&quot;&gt;&lt;div style=&quot;line-height: 19px;&quot;&gt;flopr&lt;/div&gt;&lt;/div&gt;&lt;div style=&quot;color: rgb(212, 212, 212); background-color: rgb(30, 30, 30); font-family: Consolas, &amp;quot;Courier New&amp;quot;, monospace; font-size: 14px; line-height: 19px;&quot;&gt;pcreg&lt;/div&gt;" style="whiteSpace=wrap;html=1;aspect=fixed;strokeColor=default;fontFamily=Helvetica;fontSize=12;fontColor=default;fillColor=default;points=[[0,0.25,0,0,0],[0,0.5,0,0,0],[0,0.75,0,0,0],[0.5,0,0,0,0],[0.5,1,0,0,0],[1,0.5,0,0,0]];" parent="1" vertex="1">
          <mxGeometry x="-490" y="290" width="60" height="60" as="geometry" />
        </mxCell>
        <mxCell id="FmY12MPKPxn2fFbcgKqL-8" value="32&#39;b100" style="edgeStyle=orthogonalEdgeStyle;rounded=0;orthogonalLoop=1;jettySize=auto;html=1;exitX=0;exitY=0.75;exitDx=0;exitDy=0;exitPerimeter=0;endArrow=none;endFill=0;startArrow=classic;startFill=1;align=right;" parent="1" source="FmY12MPKPxn2fFbcgKqL-6" edge="1">
          <mxGeometry x="0.2541" y="1" relative="1" as="geometry">
            <mxPoint x="-350" y="580" as="targetPoint" />
            <mxPoint as="offset" />
          </mxGeometry>
        </mxCell>
        <mxCell id="FmY12MPKPxn2fFbcgKqL-9" style="edgeStyle=orthogonalEdgeStyle;rounded=0;orthogonalLoop=1;jettySize=auto;html=1;exitX=1;exitY=0.5;exitDx=0;exitDy=0;exitPerimeter=0;entryX=0.75;entryY=1;entryDx=0;entryDy=0;entryPerimeter=0;" parent="1" target="FmY12MPKPxn2fFbcgKqL-1" edge="1">
          <mxGeometry relative="1" as="geometry">
            <mxPoint x="-320.04" y="564.3000000000002" as="sourcePoint" />
            <mxPoint x="-698.04" y="280" as="targetPoint" />
            <Array as="points">
              <mxPoint x="-170" y="564" />
              <mxPoint x="-170" y="610" />
              <mxPoint x="-740" y="610" />
              <mxPoint x="-740" y="295" />
            </Array>
          </mxGeometry>
        </mxCell>
        <mxCell id="FmY12MPKPxn2fFbcgKqL-6" value="&lt;div style=&quot;color: rgb(212, 212, 212); background-color: rgb(30, 30, 30); font-family: Consolas, &amp;quot;Courier New&amp;quot;, monospace; font-size: 14px; line-height: 19px;&quot;&gt;&lt;div style=&quot;line-height: 19px;&quot;&gt;&lt;div style=&quot;line-height: 19px;&quot;&gt;adder&lt;/div&gt;&lt;/div&gt;&lt;div style=&quot;line-height: 19px;&quot;&gt;pcadd1&lt;/div&gt;&lt;/div&gt;" style="whiteSpace=wrap;html=1;aspect=fixed;strokeColor=default;fontFamily=Helvetica;fontSize=12;fontColor=default;fillColor=default;points=[[0,0.25,0,0,0],[0,0.5,0,0,0],[0,0.75,0,0,0],[0.5,0,0,0,0],[0.5,1,0,0,0],[1,0.5,0,0,0]];" parent="1" vertex="1">
          <mxGeometry x="-322" y="534.3" width="60" height="60" as="geometry" />
        </mxCell>
        <mxCell id="FmY12MPKPxn2fFbcgKqL-10" value="32&#39;b100" style="edgeStyle=orthogonalEdgeStyle;rounded=0;orthogonalLoop=1;jettySize=auto;html=1;exitX=0;exitY=0.75;exitDx=0;exitDy=0;exitPerimeter=0;endArrow=none;endFill=0;startArrow=classic;startFill=1;align=right;" parent="1" source="FmY12MPKPxn2fFbcgKqL-11" edge="1">
          <mxGeometry x="0.0042" y="1" relative="1" as="geometry">
            <mxPoint x="-140" y="579" as="targetPoint" />
            <mxPoint as="offset" />
          </mxGeometry>
        </mxCell>
        <mxCell id="FmY12MPKPxn2fFbcgKqL-12" value="PCPlus4[31:0]" style="edgeStyle=orthogonalEdgeStyle;rounded=0;orthogonalLoop=1;jettySize=auto;html=1;exitX=0;exitY=0.5;exitDx=0;exitDy=0;exitPerimeter=0;entryX=1;entryY=0.5;entryDx=0;entryDy=0;entryPerimeter=0;startArrow=classic;startFill=1;endArrow=none;endFill=0;align=left;" parent="1" source="FmY12MPKPxn2fFbcgKqL-11" target="FmY12MPKPxn2fFbcgKqL-6" edge="1">
          <mxGeometry x="0.8519" relative="1" as="geometry">
            <mxPoint as="offset" />
          </mxGeometry>
        </mxCell>
        <mxCell id="FmY12MPKPxn2fFbcgKqL-37" value="PCPlus8[31:0]" style="edgeStyle=orthogonalEdgeStyle;rounded=0;orthogonalLoop=1;jettySize=auto;html=1;exitX=1;exitY=0.5;exitDx=0;exitDy=0;exitPerimeter=0;entryX=0;entryY=0.89;entryDx=0;entryDy=0;entryPerimeter=0;" parent="1" source="FmY12MPKPxn2fFbcgKqL-11" target="FmY12MPKPxn2fFbcgKqL-13" edge="1">
          <mxGeometry x="-0.7007" relative="1" as="geometry">
            <Array as="points">
              <mxPoint x="80" y="564" />
              <mxPoint x="80" y="426" />
            </Array>
            <mxPoint as="offset" />
          </mxGeometry>
        </mxCell>
        <mxCell id="FmY12MPKPxn2fFbcgKqL-11" value="&lt;div style=&quot;color: rgb(212, 212, 212); background-color: rgb(30, 30, 30); font-family: Consolas, &amp;quot;Courier New&amp;quot;, monospace; font-size: 14px; line-height: 19px;&quot;&gt;&lt;div style=&quot;line-height: 19px;&quot;&gt;&lt;div style=&quot;line-height: 19px;&quot;&gt;adder&lt;/div&gt;&lt;/div&gt;&lt;div style=&quot;line-height: 19px;&quot;&gt;pcadd2&lt;/div&gt;&lt;/div&gt;" style="whiteSpace=wrap;html=1;aspect=fixed;strokeColor=default;fontFamily=Helvetica;fontSize=12;fontColor=default;fillColor=default;points=[[0,0.25,0,0,0],[0,0.5,0,0,0],[0,0.75,0,0,0],[0.5,0,0,0,0],[0.5,1,0,0,0],[1,0.5,0,0,0]];" parent="1" vertex="1">
          <mxGeometry x="-100" y="534.3" width="60" height="60" as="geometry" />
        </mxCell>
        <mxCell id="FmY12MPKPxn2fFbcgKqL-15" value="clk" style="edgeStyle=orthogonalEdgeStyle;rounded=0;orthogonalLoop=1;jettySize=auto;html=1;exitX=0.33;exitY=0;exitDx=0;exitDy=0;exitPerimeter=0;startArrow=classic;startFill=1;endArrow=none;endFill=0;" parent="1" source="FmY12MPKPxn2fFbcgKqL-13" edge="1">
          <mxGeometry x="1" relative="1" as="geometry">
            <mxPoint x="143" y="280" as="targetPoint" />
            <Array as="points">
              <mxPoint x="143" y="280" />
              <mxPoint x="143" y="280" />
            </Array>
            <mxPoint as="offset" />
          </mxGeometry>
        </mxCell>
        <mxCell id="FmY12MPKPxn2fFbcgKqL-47" value="" style="edgeStyle=orthogonalEdgeStyle;rounded=0;orthogonalLoop=1;jettySize=auto;html=1;exitX=0.989;exitY=0.39;exitDx=0;exitDy=0;exitPerimeter=0;entryX=0;entryY=0.67;entryDx=0;entryDy=0;entryPerimeter=0;align=left;" parent="1" source="FmY12MPKPxn2fFbcgKqL-13" target="FmY12MPKPxn2fFbcgKqL-44" edge="1">
          <mxGeometry x="-0.7099" relative="1" as="geometry">
            <Array as="points">
              <mxPoint x="161" y="361" />
            </Array>
            <mxPoint as="offset" />
          </mxGeometry>
        </mxCell>
        <mxCell id="FmY12MPKPxn2fFbcgKqL-106" value="SrcA[31:0]" style="edgeStyle=orthogonalEdgeStyle;rounded=0;orthogonalLoop=1;jettySize=auto;html=1;exitX=1;exitY=0.22;exitDx=0;exitDy=0;exitPerimeter=0;entryX=0;entryY=0.5;entryDx=0;entryDy=0;align=left;" parent="1" source="FmY12MPKPxn2fFbcgKqL-13" target="FmY12MPKPxn2fFbcgKqL-115" edge="1">
          <mxGeometry x="-0.952" relative="1" as="geometry">
            <mxPoint x="310" y="338" as="targetPoint" />
            <Array as="points">
              <mxPoint x="210" y="340" />
              <mxPoint x="570" y="340" />
              <mxPoint x="570" y="258" />
            </Array>
            <mxPoint as="offset" />
          </mxGeometry>
        </mxCell>
        <mxCell id="FmY12MPKPxn2fFbcgKqL-130" value="WriteData[31:0]" style="edgeStyle=orthogonalEdgeStyle;rounded=0;orthogonalLoop=1;jettySize=auto;html=1;exitX=1;exitY=0.44;exitDx=0;exitDy=0;exitPerimeter=0;entryX=0.75;entryY=1;entryDx=0;entryDy=0;entryPerimeter=0;align=left;" parent="1" source="FmY12MPKPxn2fFbcgKqL-13" target="FmY12MPKPxn2fFbcgKqL-127" edge="1">
          <mxGeometry x="-0.9086" relative="1" as="geometry">
            <Array as="points">
              <mxPoint x="210" y="360" />
              <mxPoint x="450" y="360" />
              <mxPoint x="450" y="459" />
            </Array>
            <mxPoint as="offset" />
          </mxGeometry>
        </mxCell>
        <mxCell id="FmY12MPKPxn2fFbcgKqL-13" value="&lt;div style=&quot;color: rgb(212, 212, 212); background-color: rgb(30, 30, 30); font-family: Consolas, &amp;quot;Courier New&amp;quot;, monospace; font-size: 14px; line-height: 19px;&quot;&gt;&lt;div style=&quot;line-height: 19px;&quot;&gt;regfile&lt;/div&gt;&lt;/div&gt;" style="rounded=1;whiteSpace=wrap;html=1;absoluteArcSize=1;arcSize=14;strokeWidth=2;points=[[0,0.11,0,0,0],[0,0.22,0,0,0],[0,0.33,0,0,0],[0,0.44,0,0,0],[0,0.56,0,0,0],[0,0.67,0,0,0],[0,0.78,0,0,0],[0,0.89,0,0,0],[0.33,0,0,0,0],[0.33,1,0,0,0],[0.67,0,0,0,0],[0.67,1,0,0,0],[1,0.11,0,0,0],[1,0.22,0,0,0],[1,0.33,0,0,0],[1,0.44,0,0,0],[1,0.56,0,0,0],[1,0.67,0,0,0],[1,0.78,0,0,0],[1,0.89,0,0,0]];" parent="1" vertex="1">
          <mxGeometry x="110" y="310" width="100" height="130" as="geometry" />
        </mxCell>
        <mxCell id="FmY12MPKPxn2fFbcgKqL-27" value="4&#39;b1111" style="edgeStyle=orthogonalEdgeStyle;rounded=0;orthogonalLoop=1;jettySize=auto;html=1;exitX=0.25;exitY=1;exitDx=0;exitDy=0;exitPerimeter=0;startArrow=classic;startFill=1;endArrow=none;endFill=0;align=right;" parent="1" source="FmY12MPKPxn2fFbcgKqL-17" edge="1">
          <mxGeometry x="0.3245" relative="1" as="geometry">
            <mxPoint x="-150" y="365.20000000000005" as="targetPoint" />
            <mxPoint as="offset" />
          </mxGeometry>
        </mxCell>
        <mxCell id="FmY12MPKPxn2fFbcgKqL-34" value="RA1 [3:0]" style="edgeStyle=orthogonalEdgeStyle;rounded=0;orthogonalLoop=1;jettySize=auto;html=1;exitX=0.5;exitY=0;exitDx=0;exitDy=0;exitPerimeter=0;entryX=0;entryY=0.22;entryDx=0;entryDy=0;entryPerimeter=0;align=right;" parent="1" source="FmY12MPKPxn2fFbcgKqL-17" target="FmY12MPKPxn2fFbcgKqL-13" edge="1">
          <mxGeometry x="0.7854" relative="1" as="geometry">
            <mxPoint x="30" y="340" as="targetPoint" />
            <Array as="points">
              <mxPoint x="-75" y="339" />
            </Array>
            <mxPoint as="offset" />
          </mxGeometry>
        </mxCell>
        <mxCell id="FmY12MPKPxn2fFbcgKqL-17" value="&lt;div style=&quot;color: rgb(212, 212, 212); background-color: rgb(30, 30, 30); font-family: Consolas, &amp;quot;Courier New&amp;quot;, monospace; font-size: 14px; line-height: 19px;&quot;&gt;&lt;div style=&quot;line-height: 19px;&quot;&gt;mux2&lt;/div&gt;&lt;/div&gt;&lt;div style=&quot;color: rgb(212, 212, 212); background-color: rgb(30, 30, 30); font-family: Consolas, &amp;quot;Courier New&amp;quot;, monospace; font-size: 14px; line-height: 19px;&quot;&gt;&lt;div style=&quot;line-height: 19px;&quot;&gt;ra1mux&lt;/div&gt;&lt;/div&gt;" style="verticalLabelPosition=middle;verticalAlign=middle;html=1;shape=trapezoid;perimeter=trapezoidPerimeter;whiteSpace=wrap;size=0.125;arcSize=10;flipV=1;labelPosition=center;align=center;strokeColor=default;fontFamily=Helvetica;fontSize=12;fontColor=default;fillColor=default;direction=south;rounded=0;shadow=0;points=[[0,0.5,0,0,0],[0.25,1,0,0,0],[0.5,0,0,0,0],[0.75,1,0,0,0],[1,0.5,0,0,0]];" parent="1" vertex="1">
          <mxGeometry x="-120" y="290" width="45" height="100" as="geometry" />
        </mxCell>
        <mxCell id="FmY12MPKPxn2fFbcgKqL-26" value="Instr[19:16]" style="edgeStyle=orthogonalEdgeStyle;rounded=0;orthogonalLoop=1;jettySize=auto;html=1;exitX=1;exitY=0.33;exitDx=0;exitDy=0;exitPerimeter=0;align=right;" parent="1" source="FmY12MPKPxn2fFbcgKqL-18" edge="1">
          <mxGeometry x="0.6607" relative="1" as="geometry">
            <mxPoint x="-120" y="320" as="targetPoint" />
            <Array as="points">
              <mxPoint x="-120" y="320" />
            </Array>
            <mxPoint as="offset" />
          </mxGeometry>
        </mxCell>
        <mxCell id="FmY12MPKPxn2fFbcgKqL-31" value="Instr[3:0]" style="edgeStyle=orthogonalEdgeStyle;rounded=0;orthogonalLoop=1;jettySize=auto;html=1;exitX=1;exitY=0.33;exitDx=0;exitDy=0;exitPerimeter=0;entryX=0.75;entryY=1;entryDx=0;entryDy=0;entryPerimeter=0;align=right;" parent="1" source="FmY12MPKPxn2fFbcgKqL-18" target="FmY12MPKPxn2fFbcgKqL-30" edge="1">
          <mxGeometry x="0.9059" relative="1" as="geometry">
            <Array as="points">
              <mxPoint x="-220" y="320" />
              <mxPoint x="-220" y="405" />
            </Array>
            <mxPoint as="offset" />
          </mxGeometry>
        </mxCell>
        <mxCell id="FmY12MPKPxn2fFbcgKqL-32" value="Instr[15:12]" style="edgeStyle=orthogonalEdgeStyle;rounded=0;orthogonalLoop=1;jettySize=auto;html=1;exitX=1;exitY=0.33;exitDx=0;exitDy=0;exitPerimeter=0;entryX=0.25;entryY=1;entryDx=0;entryDy=0;entryPerimeter=0;align=right;" parent="1" source="FmY12MPKPxn2fFbcgKqL-18" target="FmY12MPKPxn2fFbcgKqL-30" edge="1">
          <mxGeometry x="0.9208" relative="1" as="geometry">
            <Array as="points">
              <mxPoint x="-220" y="320" />
              <mxPoint x="-220" y="455" />
            </Array>
            <mxPoint as="offset" />
          </mxGeometry>
        </mxCell>
        <mxCell id="FmY12MPKPxn2fFbcgKqL-67" value="Instr[27:26]" style="edgeStyle=orthogonalEdgeStyle;rounded=0;orthogonalLoop=1;jettySize=auto;html=1;exitX=1;exitY=0.33;exitDx=0;exitDy=0;exitPerimeter=0;entryX=0;entryY=0.08;entryDx=0;entryDy=0;entryPerimeter=0;align=right;" parent="1" source="FmY12MPKPxn2fFbcgKqL-18" target="FmY12MPKPxn2fFbcgKqL-54" edge="1">
          <mxGeometry x="0.9652" relative="1" as="geometry">
            <Array as="points">
              <mxPoint x="-220" y="320" />
              <mxPoint x="-220" y="-80" />
            </Array>
            <mxPoint as="offset" />
          </mxGeometry>
        </mxCell>
        <mxCell id="FmY12MPKPxn2fFbcgKqL-69" value="Instr[25:20]" style="edgeStyle=orthogonalEdgeStyle;rounded=0;orthogonalLoop=1;jettySize=auto;html=1;exitX=1;exitY=0.33;exitDx=0;exitDy=0;exitPerimeter=0;entryX=0;entryY=0.15;entryDx=0;entryDy=0;entryPerimeter=0;align=right;" parent="1" source="FmY12MPKPxn2fFbcgKqL-18" target="FmY12MPKPxn2fFbcgKqL-54" edge="1">
          <mxGeometry x="0.9657" relative="1" as="geometry">
            <mxPoint x="290" y="-10" as="targetPoint" />
            <Array as="points">
              <mxPoint x="-220" y="320" />
              <mxPoint x="-220" y="-62" />
              <mxPoint x="-25" y="-62" />
            </Array>
            <mxPoint as="offset" />
          </mxGeometry>
        </mxCell>
        <mxCell id="FmY12MPKPxn2fFbcgKqL-73" value="Instr[15:12]" style="edgeStyle=orthogonalEdgeStyle;rounded=0;orthogonalLoop=1;jettySize=auto;html=1;exitX=1;exitY=0.33;exitDx=0;exitDy=0;exitPerimeter=0;entryX=0;entryY=0.23;entryDx=0;entryDy=0;entryPerimeter=0;align=right;" parent="1" source="FmY12MPKPxn2fFbcgKqL-18" target="FmY12MPKPxn2fFbcgKqL-54" edge="1">
          <mxGeometry x="0.9663" relative="1" as="geometry">
            <Array as="points">
              <mxPoint x="-220" y="320" />
              <mxPoint x="-220" y="-42" />
              <mxPoint x="-25" y="-42" />
            </Array>
            <mxPoint as="offset" />
          </mxGeometry>
        </mxCell>
        <mxCell id="FmY12MPKPxn2fFbcgKqL-77" value="Instr[31:28]" style="edgeStyle=orthogonalEdgeStyle;rounded=0;orthogonalLoop=1;jettySize=auto;html=1;exitX=1;exitY=0.33;exitDx=0;exitDy=0;exitPerimeter=0;entryX=0;entryY=0.08;entryDx=0;entryDy=0;entryPerimeter=0;align=right;" parent="1" source="FmY12MPKPxn2fFbcgKqL-18" target="tbejQX52NWhL7G9Jqi1e-9" edge="1">
          <mxGeometry x="0.9632" relative="1" as="geometry">
            <Array as="points">
              <mxPoint x="-220" y="320" />
              <mxPoint x="-220" y="-120" />
              <mxPoint x="270" y="-120" />
              <mxPoint x="270" y="-80" />
            </Array>
            <mxPoint as="offset" />
          </mxGeometry>
        </mxCell>
        <mxCell id="FmY12MPKPxn2fFbcgKqL-113" value="Instr[15:12]" style="edgeStyle=orthogonalEdgeStyle;rounded=0;orthogonalLoop=1;jettySize=auto;html=1;exitX=1;exitY=0.33;exitDx=0;exitDy=0;exitPerimeter=0;entryX=0;entryY=0.75;entryDx=0;entryDy=0;align=right;" parent="1" source="FmY12MPKPxn2fFbcgKqL-18" target="FmY12MPKPxn2fFbcgKqL-112" edge="1">
          <mxGeometry x="0.9385" relative="1" as="geometry">
            <Array as="points">
              <mxPoint x="-220" y="320" />
              <mxPoint x="-220" y="510" />
              <mxPoint x="20" y="510" />
              <mxPoint x="20" y="398" />
            </Array>
            <mxPoint as="offset" />
          </mxGeometry>
        </mxCell>
        <mxCell id="FmY12MPKPxn2fFbcgKqL-124" value="Instr[23:0]" style="edgeStyle=orthogonalEdgeStyle;rounded=0;orthogonalLoop=1;jettySize=auto;html=1;exitX=1;exitY=0.33;exitDx=0;exitDy=0;exitPerimeter=0;entryX=0;entryY=0.5;entryDx=0;entryDy=0;entryPerimeter=0;align=right;" parent="1" source="FmY12MPKPxn2fFbcgKqL-18" target="FmY12MPKPxn2fFbcgKqL-122" edge="1">
          <mxGeometry x="0.9458" relative="1" as="geometry">
            <Array as="points">
              <mxPoint x="-220" y="320" />
              <mxPoint x="-220" y="510" />
            </Array>
            <mxPoint as="offset" />
          </mxGeometry>
        </mxCell>
        <mxCell id="FmY12MPKPxn2fFbcgKqL-18" value="&lt;div style=&quot;color: rgb(212, 212, 212); background-color: rgb(30, 30, 30); font-family: Consolas, &amp;quot;Courier New&amp;quot;, monospace; font-size: 14px; line-height: 19px;&quot;&gt;&lt;div style=&quot;line-height: 19px;&quot;&gt;&lt;div style=&quot;line-height: 19px;&quot;&gt;imem&lt;/div&gt;&lt;/div&gt;&lt;/div&gt;" style="rounded=1;whiteSpace=wrap;html=1;absoluteArcSize=1;arcSize=14;strokeWidth=2;points=[[0,0.33,0,0,0],[0,0.67,0,0,0],[0.33,0,0,0,0],[0.33,1,0,0,0],[0.67,0,0,0,0],[0.67,1,0,0,0],[1,0.33,0,0,0],[1,0.67,0,0,0]];" parent="1" vertex="1">
          <mxGeometry x="-330" y="300" width="92" height="60" as="geometry" />
        </mxCell>
        <mxCell id="FmY12MPKPxn2fFbcgKqL-35" value="RA2 [3:0]" style="edgeStyle=orthogonalEdgeStyle;rounded=0;orthogonalLoop=1;jettySize=auto;html=1;exitX=0.5;exitY=0;exitDx=0;exitDy=0;exitPerimeter=0;entryX=0;entryY=0.33;entryDx=0;entryDy=0;entryPerimeter=0;align=right;" parent="1" source="FmY12MPKPxn2fFbcgKqL-30" target="FmY12MPKPxn2fFbcgKqL-13" edge="1">
          <mxGeometry x="0.7996" relative="1" as="geometry">
            <Array as="points">
              <mxPoint x="10" y="430" />
              <mxPoint x="10" y="353" />
            </Array>
            <mxPoint as="offset" />
          </mxGeometry>
        </mxCell>
        <mxCell id="FmY12MPKPxn2fFbcgKqL-30" value="&lt;div style=&quot;color: rgb(212, 212, 212); background-color: rgb(30, 30, 30); font-family: Consolas, &amp;quot;Courier New&amp;quot;, monospace; font-size: 14px; line-height: 19px;&quot;&gt;&lt;div style=&quot;line-height: 19px;&quot;&gt;mux2&lt;/div&gt;&lt;/div&gt;&lt;div style=&quot;color: rgb(212, 212, 212); background-color: rgb(30, 30, 30); font-family: Consolas, &amp;quot;Courier New&amp;quot;, monospace; font-size: 14px; line-height: 19px;&quot;&gt;&lt;div style=&quot;line-height: 19px;&quot;&gt;&lt;div style=&quot;line-height: 19px;&quot;&gt;ra2mux&lt;/div&gt;&lt;/div&gt;&lt;/div&gt;" style="verticalLabelPosition=middle;verticalAlign=middle;html=1;shape=trapezoid;perimeter=trapezoidPerimeter;whiteSpace=wrap;size=0.125;arcSize=10;flipV=1;labelPosition=center;align=center;strokeColor=default;fontFamily=Helvetica;fontSize=12;fontColor=default;fillColor=default;direction=south;rounded=0;shadow=0;points=[[0,0.5,0,0,0],[0.25,1,0,0,0],[0.5,0,0,0,0],[0.75,1,0,0,0],[1,0.5,0,0,0]];" parent="1" vertex="1">
          <mxGeometry x="-57.5" y="380" width="45" height="100" as="geometry" />
        </mxCell>
        <mxCell id="FmY12MPKPxn2fFbcgKqL-39" value="" style="edgeStyle=orthogonalEdgeStyle;rounded=0;orthogonalLoop=1;jettySize=auto;html=1;exitX=0.5;exitY=0;exitDx=0;exitDy=0;exitPerimeter=0;entryX=0.25;entryY=1;entryDx=0;entryDy=0;entryPerimeter=0;align=center;" parent="1" source="FmY12MPKPxn2fFbcgKqL-38" target="FmY12MPKPxn2fFbcgKqL-1" edge="1">
          <mxGeometry x="-0.9707" relative="1" as="geometry">
            <Array as="points">
              <mxPoint x="1200" y="390" />
              <mxPoint x="1200" y="620" />
              <mxPoint x="-730" y="620" />
              <mxPoint x="-730" y="345" />
            </Array>
            <mxPoint as="offset" />
          </mxGeometry>
        </mxCell>
        <mxCell id="FmY12MPKPxn2fFbcgKqL-109" value="&lt;span style=&quot;color: rgb(0, 0, 0); font-family: Helvetica; font-size: 11px; font-style: normal; font-variant-ligatures: normal; font-variant-caps: normal; font-weight: 400; letter-spacing: normal; orphans: 2; text-indent: 0px; text-transform: none; widows: 2; word-spacing: 0px; -webkit-text-stroke-width: 0px; background-color: rgb(255, 255, 255); text-decoration-thickness: initial; text-decoration-style: initial; text-decoration-color: initial; float: none; display: inline !important;&quot;&gt;Result[31:0]&lt;/span&gt;" style="edgeStyle=orthogonalEdgeStyle;rounded=0;orthogonalLoop=1;jettySize=auto;html=1;exitX=0.5;exitY=0;exitDx=0;exitDy=0;exitPerimeter=0;align=left;entryX=0;entryY=0.78;entryDx=0;entryDy=0;entryPerimeter=0;" parent="1" source="FmY12MPKPxn2fFbcgKqL-38" target="FmY12MPKPxn2fFbcgKqL-13" edge="1">
          <mxGeometry x="-0.9942" relative="1" as="geometry">
            <mxPoint x="-8.88888888888889" y="510" as="targetPoint" />
            <Array as="points">
              <mxPoint x="1200" y="390" />
              <mxPoint x="1200" y="620" />
              <mxPoint x="60" y="620" />
              <mxPoint x="60" y="411" />
            </Array>
            <mxPoint as="offset" />
          </mxGeometry>
        </mxCell>
        <mxCell id="FmY12MPKPxn2fFbcgKqL-38" value="&lt;div style=&quot;background-color: rgb(30, 30, 30); font-family: Consolas, &amp;quot;Courier New&amp;quot;, monospace; font-size: 14px; line-height: 19px;&quot;&gt;&lt;div style=&quot;line-height: 19px;&quot;&gt;&lt;font color=&quot;#ffffff&quot;&gt;mux2&lt;/font&gt;&lt;/div&gt;&lt;/div&gt;&lt;div style=&quot;background-color: rgb(30, 30, 30); font-family: Consolas, &amp;quot;Courier New&amp;quot;, monospace; font-size: 14px; line-height: 19px;&quot;&gt;&lt;div style=&quot;line-height: 19px;&quot;&gt;&lt;font color=&quot;#ffffff&quot;&gt;resmux&lt;/font&gt;&lt;/div&gt;&lt;/div&gt;" style="verticalLabelPosition=middle;verticalAlign=middle;html=1;shape=trapezoid;perimeter=trapezoidPerimeter;whiteSpace=wrap;size=0.125;arcSize=10;flipV=1;labelPosition=center;align=center;fontFamily=Helvetica;fontSize=12;direction=south;rounded=0;shadow=0;points=[[0,0.5,0,0,0],[0.25,1,0,0,0],[0.5,0,0,0,0],[0.75,1,0,0,0],[1,0.5,0,0,0]];" parent="1" vertex="1">
          <mxGeometry x="1080" y="340" width="45" height="100" as="geometry" />
        </mxCell>
        <mxCell id="FmY12MPKPxn2fFbcgKqL-43" value="&lt;font color=&quot;#00ff00&quot;&gt;MovORAluResult[31:0]&lt;/font&gt;" style="edgeStyle=orthogonalEdgeStyle;rounded=0;orthogonalLoop=1;jettySize=auto;html=1;exitX=0.5;exitY=0;exitDx=0;exitDy=0;exitPerimeter=0;fillColor=#d5e8d4;strokeColor=#82b366;align=left;entryX=0.75;entryY=1;entryDx=0;entryDy=0;entryPerimeter=0;" parent="1" source="FmY12MPKPxn2fFbcgKqL-42" target="FmY12MPKPxn2fFbcgKqL-38" edge="1">
          <mxGeometry x="-0.9733" relative="1" as="geometry">
            <mxPoint x="1040" y="420" as="targetPoint" />
            <Array as="points">
              <mxPoint x="1020" y="534" />
              <mxPoint x="1020" y="365" />
            </Array>
            <mxPoint as="offset" />
          </mxGeometry>
        </mxCell>
        <mxCell id="FmY12MPKPxn2fFbcgKqL-42" value="&lt;div style=&quot;background-color: rgb(30, 30, 30); font-family: Consolas, &amp;quot;Courier New&amp;quot;, monospace; font-size: 14px; line-height: 19px;&quot;&gt;&lt;div style=&quot;line-height: 19px;&quot;&gt;&lt;font color=&quot;#ffffff&quot;&gt;mux2&lt;/font&gt;&lt;/div&gt;&lt;/div&gt;&lt;div style=&quot;background-color: rgb(30, 30, 30); line-height: 19px; font-size: 14px; font-family: Consolas, &amp;quot;Courier New&amp;quot;, monospace;&quot;&gt;&lt;div style=&quot;line-height: 19px;&quot;&gt;&lt;font face=&quot;Consolas, Courier New, monospace&quot; color=&quot;#ffffff&quot;&gt;movmux&lt;/font&gt;&lt;br&gt;&lt;/div&gt;&lt;/div&gt;" style="verticalLabelPosition=middle;verticalAlign=middle;html=1;shape=trapezoid;perimeter=trapezoidPerimeter;whiteSpace=wrap;size=0.125;arcSize=10;flipV=1;labelPosition=center;align=center;fontFamily=Helvetica;fontSize=12;direction=south;rounded=0;shadow=0;points=[[0,0.5,0,0,0],[0.25,1,0,0,0],[0.5,0,0,0,0],[0.75,1,0,0,0],[1,0.5,0,0,0]];fillColor=#d5e8d4;strokeColor=#82b366;" parent="1" vertex="1">
          <mxGeometry x="830" y="484.3" width="45" height="100" as="geometry" />
        </mxCell>
        <mxCell id="FmY12MPKPxn2fFbcgKqL-45" value="ReadData [31:0]" style="edgeStyle=orthogonalEdgeStyle;rounded=0;orthogonalLoop=1;jettySize=auto;html=1;exitX=1.024;exitY=0.456;exitDx=0;exitDy=0;exitPerimeter=0;align=left;entryX=0.25;entryY=1;entryDx=0;entryDy=0;entryPerimeter=0;" parent="1" source="FmY12MPKPxn2fFbcgKqL-44" target="FmY12MPKPxn2fFbcgKqL-38" edge="1">
          <mxGeometry x="-0.9221" relative="1" as="geometry">
            <mxPoint x="1040" y="360" as="targetPoint" />
            <Array as="points">
              <mxPoint x="1060" y="347" />
              <mxPoint x="1060" y="415" />
            </Array>
            <mxPoint as="offset" />
          </mxGeometry>
        </mxCell>
        <mxCell id="FmY12MPKPxn2fFbcgKqL-46" value="clk" style="edgeStyle=orthogonalEdgeStyle;rounded=0;orthogonalLoop=1;jettySize=auto;html=1;exitX=0.481;exitY=0.001;exitDx=0;exitDy=0;exitPerimeter=0;startArrow=classic;startFill=1;endArrow=none;endFill=0;" parent="1" source="FmY12MPKPxn2fFbcgKqL-44" edge="1">
          <mxGeometry x="1" relative="1" as="geometry">
            <mxPoint x="898" y="290" as="targetPoint" />
            <Array as="points">
              <mxPoint x="898" y="290" />
            </Array>
            <mxPoint as="offset" />
          </mxGeometry>
        </mxCell>
        <mxCell id="FmY12MPKPxn2fFbcgKqL-44" value="&lt;div style=&quot;color: rgb(212, 212, 212); background-color: rgb(30, 30, 30); font-family: Consolas, &amp;quot;Courier New&amp;quot;, monospace; font-size: 14px; line-height: 19px;&quot;&gt;&lt;div style=&quot;line-height: 19px;&quot;&gt;&lt;div style=&quot;line-height: 19px;&quot;&gt;dmem&lt;/div&gt;&lt;/div&gt;&lt;/div&gt;" style="rounded=1;whiteSpace=wrap;html=1;absoluteArcSize=1;arcSize=14;strokeWidth=2;points=[[0,0.33,0,0,0],[0,0.67,0,0,0],[0.33,0,0,0,0],[0.33,1,0,0,0],[0.67,0,0,0,0],[0.67,1,0,0,0],[1,0.33,0,0,0],[1,0.67,0,0,0]];" parent="1" vertex="1">
          <mxGeometry x="850" y="320" width="100" height="60" as="geometry" />
        </mxCell>
        <mxCell id="FmY12MPKPxn2fFbcgKqL-49" value="" style="edgeStyle=orthogonalEdgeStyle;rounded=0;orthogonalLoop=1;jettySize=auto;html=1;entryX=0;entryY=0.33;entryDx=0;entryDy=0;entryPerimeter=0;exitX=1;exitY=0.33;exitDx=0;exitDy=0;exitPerimeter=0;" parent="1" source="FmY12MPKPxn2fFbcgKqL-48" target="FmY12MPKPxn2fFbcgKqL-44" edge="1">
          <mxGeometry x="-0.4595" relative="1" as="geometry">
            <mxPoint x="740" y="330" as="sourcePoint" />
            <Array as="points">
              <mxPoint x="810" y="256" />
              <mxPoint x="810" y="340" />
            </Array>
            <mxPoint as="offset" />
          </mxGeometry>
        </mxCell>
        <mxCell id="FmY12MPKPxn2fFbcgKqL-53" value="&lt;span style=&quot;color: rgb(0, 0, 0); font-family: Helvetica; font-size: 11px; font-style: normal; font-variant-ligatures: normal; font-variant-caps: normal; font-weight: 400; letter-spacing: normal; orphans: 2; text-indent: 0px; text-transform: none; widows: 2; word-spacing: 0px; -webkit-text-stroke-width: 0px; background-color: rgb(255, 255, 255); text-decoration-thickness: initial; text-decoration-style: initial; text-decoration-color: initial; float: none; display: inline !important;&quot;&gt;ALUResult[31:0]&lt;/span&gt;" style="edgeStyle=orthogonalEdgeStyle;rounded=0;orthogonalLoop=1;jettySize=auto;html=1;entryX=0.75;entryY=1;entryDx=0;entryDy=0;entryPerimeter=0;align=left;exitX=1;exitY=0.33;exitDx=0;exitDy=0;exitPerimeter=0;" parent="1" source="FmY12MPKPxn2fFbcgKqL-48" target="FmY12MPKPxn2fFbcgKqL-42" edge="1">
          <mxGeometry x="-0.9565" relative="1" as="geometry">
            <mxPoint x="730" y="310" as="sourcePoint" />
            <Array as="points">
              <mxPoint x="810" y="256" />
              <mxPoint x="810" y="509" />
            </Array>
            <mxPoint as="offset" />
          </mxGeometry>
        </mxCell>
        <mxCell id="FmY12MPKPxn2fFbcgKqL-78" value="ALUFlags[3:0]" style="edgeStyle=orthogonalEdgeStyle;rounded=0;orthogonalLoop=1;jettySize=auto;html=1;exitX=1;exitY=0.67;exitDx=0;exitDy=0;exitPerimeter=0;entryX=0;entryY=0.15;entryDx=0;entryDy=0;entryPerimeter=0;align=left;" parent="1" source="FmY12MPKPxn2fFbcgKqL-48" target="tbejQX52NWhL7G9Jqi1e-9" edge="1">
          <mxGeometry x="-0.986" relative="1" as="geometry">
            <Array as="points">
              <mxPoint x="790" y="284" />
              <mxPoint x="790" y="320" />
              <mxPoint x="350" y="320" />
              <mxPoint x="350" y="-62" />
            </Array>
            <mxPoint as="offset" />
          </mxGeometry>
        </mxCell>
        <mxCell id="FmY12MPKPxn2fFbcgKqL-48" value="&lt;div style=&quot;color: rgb(212, 212, 212); background-color: rgb(30, 30, 30); font-family: Consolas, &amp;quot;Courier New&amp;quot;, monospace; font-size: 14px; line-height: 19px;&quot;&gt;&lt;div style=&quot;line-height: 19px;&quot;&gt;&lt;div style=&quot;line-height: 19px;&quot;&gt;alu&lt;/div&gt;&lt;/div&gt;&lt;/div&gt;" style="rounded=1;whiteSpace=wrap;html=1;absoluteArcSize=1;arcSize=14;strokeWidth=2;points=[[0,0.33,0,0,0],[0,0.67,0,0,0],[0.33,0,0,0,0],[0.33,1,0,0,0],[0.67,0,0,0,0],[0.67,1,0,0,0],[1,0.33,0,0,0],[1,0.67,0,0,0]];" parent="1" vertex="1">
          <mxGeometry x="600" y="230" width="102" height="80" as="geometry" />
        </mxCell>
        <mxCell id="FmY12MPKPxn2fFbcgKqL-58" value="" style="edgeStyle=orthogonalEdgeStyle;rounded=0;orthogonalLoop=1;jettySize=auto;html=1;exitX=1;exitY=0.92;exitDx=0;exitDy=0;exitPerimeter=0;align=left;entryX=1;entryY=0.5;entryDx=0;entryDy=0;entryPerimeter=0;" parent="1" source="FmY12MPKPxn2fFbcgKqL-54" target="FmY12MPKPxn2fFbcgKqL-17" edge="1">
          <mxGeometry x="-0.9209" relative="1" as="geometry">
            <mxPoint x="220" y="150" as="targetPoint" />
            <Array as="points">
              <mxPoint x="170" y="130" />
              <mxPoint x="170" y="190" />
              <mxPoint x="-97" y="190" />
            </Array>
            <mxPoint as="offset" />
          </mxGeometry>
        </mxCell>
        <mxCell id="FmY12MPKPxn2fFbcgKqL-59" value="ImmSrc[1:0]" style="edgeStyle=orthogonalEdgeStyle;rounded=0;orthogonalLoop=1;jettySize=auto;html=1;exitX=1;exitY=0.85;exitDx=0;exitDy=0;exitPerimeter=0;align=left;" parent="1" source="FmY12MPKPxn2fFbcgKqL-54" target="FmY12MPKPxn2fFbcgKqL-122" edge="1">
          <mxGeometry x="-0.9759" relative="1" as="geometry">
            <mxPoint x="215" y="92.66666666666674" as="targetPoint" />
            <Array as="points">
              <mxPoint x="75" y="110" />
              <mxPoint x="320" y="110" />
            </Array>
            <mxPoint as="offset" />
          </mxGeometry>
        </mxCell>
        <mxCell id="FmY12MPKPxn2fFbcgKqL-60" value="&lt;font color=&quot;#00ff00&quot;&gt;MovF&lt;/font&gt;" style="edgeStyle=orthogonalEdgeStyle;rounded=0;orthogonalLoop=1;jettySize=auto;html=1;exitX=1;exitY=0.69;exitDx=0;exitDy=0;exitPerimeter=0;align=left;fillColor=#d5e8d4;strokeColor=#82b366;entryX=0;entryY=0.69;entryDx=0;entryDy=0;entryPerimeter=0;" parent="1" source="FmY12MPKPxn2fFbcgKqL-54" target="tbejQX52NWhL7G9Jqi1e-9" edge="1">
          <mxGeometry x="-0.9699" relative="1" as="geometry">
            <mxPoint x="300" y="30" as="targetPoint" />
            <Array as="points">
              <mxPoint x="290" y="72" />
              <mxPoint x="370" y="73" />
            </Array>
            <mxPoint as="offset" />
          </mxGeometry>
        </mxCell>
        <mxCell id="FmY12MPKPxn2fFbcgKqL-61" value="ALUSrc" style="edgeStyle=orthogonalEdgeStyle;rounded=0;orthogonalLoop=1;jettySize=auto;html=1;exitX=1;exitY=0.62;exitDx=0;exitDy=0;exitPerimeter=0;align=left;entryX=1;entryY=0.5;entryDx=0;entryDy=0;entryPerimeter=0;" parent="1" source="FmY12MPKPxn2fFbcgKqL-54" target="FmY12MPKPxn2fFbcgKqL-127" edge="1">
          <mxGeometry x="-0.9875" relative="1" as="geometry">
            <mxPoint x="215" y="55.33333333333326" as="targetPoint" />
            <Array as="points">
              <mxPoint x="330" y="55" />
              <mxPoint x="330" y="170" />
              <mxPoint x="492" y="170" />
            </Array>
            <mxPoint as="offset" />
          </mxGeometry>
        </mxCell>
        <mxCell id="FmY12MPKPxn2fFbcgKqL-62" value="MemtoReg" style="edgeStyle=orthogonalEdgeStyle;rounded=0;orthogonalLoop=1;jettySize=auto;html=1;exitX=1;exitY=0.54;exitDx=0;exitDy=0;exitPerimeter=0;align=left;entryX=1;entryY=0.5;entryDx=0;entryDy=0;entryPerimeter=0;" parent="1" target="FmY12MPKPxn2fFbcgKqL-38" edge="1">
          <mxGeometry x="-0.9587" relative="1" as="geometry">
            <mxPoint x="1080" y="340" as="targetPoint" />
            <mxPoint x="52.5" y="35" as="sourcePoint" />
            <Array as="points">
              <mxPoint x="220" y="35" />
              <mxPoint x="220" y="190" />
              <mxPoint x="1102" y="190" />
            </Array>
            <mxPoint as="offset" />
          </mxGeometry>
        </mxCell>
        <mxCell id="FmY12MPKPxn2fFbcgKqL-63" value="MemW" style="edgeStyle=orthogonalEdgeStyle;rounded=0;orthogonalLoop=1;jettySize=auto;html=1;exitX=1;exitY=0.38;exitDx=0;exitDy=0;exitPerimeter=0;align=left;entryX=0;entryY=0.46;entryDx=0;entryDy=0;entryPerimeter=0;" parent="1" source="FmY12MPKPxn2fFbcgKqL-54" target="tbejQX52NWhL7G9Jqi1e-9" edge="1">
          <mxGeometry x="-0.9661" relative="1" as="geometry">
            <mxPoint x="215" y="15.333333333333258" as="targetPoint" />
            <Array as="points">
              <mxPoint x="240" y="-5" />
              <mxPoint x="240" y="15" />
            </Array>
            <mxPoint as="offset" />
          </mxGeometry>
        </mxCell>
        <mxCell id="FmY12MPKPxn2fFbcgKqL-64" value="RegW" style="edgeStyle=orthogonalEdgeStyle;rounded=0;orthogonalLoop=1;jettySize=auto;html=1;exitX=1;exitY=0.31;exitDx=0;exitDy=0;exitPerimeter=0;align=left;entryX=0;entryY=0.38;entryDx=0;entryDy=0;entryPerimeter=0;" parent="1" source="FmY12MPKPxn2fFbcgKqL-54" target="tbejQX52NWhL7G9Jqi1e-9" edge="1">
          <mxGeometry x="-0.9661" relative="1" as="geometry">
            <mxPoint x="215" y="-4.6666666666667425" as="targetPoint" />
            <Array as="points">
              <mxPoint x="250" y="-23" />
              <mxPoint x="250" y="-5" />
            </Array>
            <mxPoint as="offset" />
          </mxGeometry>
        </mxCell>
        <mxCell id="FmY12MPKPxn2fFbcgKqL-65" value="PCS" style="edgeStyle=orthogonalEdgeStyle;rounded=0;orthogonalLoop=1;jettySize=auto;html=1;exitX=1;exitY=0.23;exitDx=0;exitDy=0;exitPerimeter=0;align=left;entryX=0;entryY=0.31;entryDx=0;entryDy=0;entryPerimeter=0;" parent="1" source="FmY12MPKPxn2fFbcgKqL-54" target="tbejQX52NWhL7G9Jqi1e-9" edge="1">
          <mxGeometry x="-0.9661" relative="1" as="geometry">
            <mxPoint x="215" y="-22.666666666666742" as="targetPoint" />
            <Array as="points">
              <mxPoint x="260" y="-43" />
              <mxPoint x="260" y="-23" />
            </Array>
            <mxPoint as="offset" />
          </mxGeometry>
        </mxCell>
        <mxCell id="FmY12MPKPxn2fFbcgKqL-66" value="FlagW[1:0]" style="edgeStyle=orthogonalEdgeStyle;rounded=0;orthogonalLoop=1;jettySize=auto;html=1;exitX=1;exitY=0.15;exitDx=0;exitDy=0;exitPerimeter=0;align=left;entryX=0;entryY=0.23;entryDx=0;entryDy=0;entryPerimeter=0;" parent="1" source="FmY12MPKPxn2fFbcgKqL-54" target="tbejQX52NWhL7G9Jqi1e-9" edge="1">
          <mxGeometry x="-0.9661" relative="1" as="geometry">
            <mxPoint x="215" y="-42.66666666666674" as="targetPoint" />
            <Array as="points">
              <mxPoint x="270" y="-63" />
              <mxPoint x="270" y="-43" />
            </Array>
            <mxPoint as="offset" />
          </mxGeometry>
        </mxCell>
        <mxCell id="FmY12MPKPxn2fFbcgKqL-140" value="RegSrc[1:0]" style="edgeStyle=orthogonalEdgeStyle;rounded=0;orthogonalLoop=1;jettySize=auto;html=1;exitX=1;exitY=0.92;exitDx=0;exitDy=0;exitPerimeter=0;entryX=1;entryY=0.5;entryDx=0;entryDy=0;entryPerimeter=0;align=left;" parent="1" source="FmY12MPKPxn2fFbcgKqL-54" target="FmY12MPKPxn2fFbcgKqL-30" edge="1">
          <mxGeometry x="-0.9815" relative="1" as="geometry">
            <Array as="points">
              <mxPoint x="170" y="130" />
              <mxPoint x="170" y="190" />
              <mxPoint x="-35" y="190" />
            </Array>
            <mxPoint as="offset" />
          </mxGeometry>
        </mxCell>
        <mxCell id="FmY12MPKPxn2fFbcgKqL-146" value="&lt;font color=&quot;#ffae00&quot;&gt;ALUControl[2:0]&lt;/font&gt;" style="edgeStyle=orthogonalEdgeStyle;rounded=0;orthogonalLoop=1;jettySize=auto;html=1;exitX=0.67;exitY=1;exitDx=0;exitDy=0;exitPerimeter=0;entryX=0.5;entryY=0;entryDx=0;entryDy=0;align=center;fillColor=#ffe6cc;strokeColor=#d79b00;" parent="1" source="FmY12MPKPxn2fFbcgKqL-54" target="FmY12MPKPxn2fFbcgKqL-119" edge="1">
          <mxGeometry x="-0.9705" relative="1" as="geometry">
            <Array as="points">
              <mxPoint x="42" y="210" />
              <mxPoint x="640" y="210" />
            </Array>
            <mxPoint as="offset" />
          </mxGeometry>
        </mxCell>
        <mxCell id="FmY12MPKPxn2fFbcgKqL-163" value="&lt;font color=&quot;#3399ff&quot;&gt;ByteFlag&lt;/font&gt;" style="edgeStyle=orthogonalEdgeStyle;rounded=0;orthogonalLoop=1;jettySize=auto;html=1;exitX=1;exitY=0.46;exitDx=0;exitDy=0;exitPerimeter=0;entryX=0.298;entryY=-0.15;entryDx=0;entryDy=0;entryPerimeter=0;align=left;fontColor=#0000ff;fillColor=#dae8fc;strokeColor=#6c8ebf;" parent="1" source="FmY12MPKPxn2fFbcgKqL-54" edge="1">
          <mxGeometry x="-0.9909" relative="1" as="geometry">
            <mxPoint x="90" y="14.5" as="sourcePoint" />
            <mxPoint x="874.2379999999998" y="320.0000000000002" as="targetPoint" />
            <Array as="points">
              <mxPoint x="210" y="15" />
              <mxPoint x="210" y="200" />
              <mxPoint x="874" y="200" />
            </Array>
            <mxPoint as="offset" />
          </mxGeometry>
        </mxCell>
        <mxCell id="HjcfJML174UiBPMMvX2T-1" value="LinkF" style="edgeStyle=orthogonalEdgeStyle;rounded=0;orthogonalLoop=1;jettySize=auto;html=1;exitX=1;exitY=0.77;exitDx=0;exitDy=0;exitPerimeter=0;entryX=0;entryY=0.77;entryDx=0;entryDy=0;entryPerimeter=0;fillColor=#fad9d5;strokeColor=#ae4132;align=left;fontColor=#ff0000;" edge="1" parent="1" source="FmY12MPKPxn2fFbcgKqL-54" target="tbejQX52NWhL7G9Jqi1e-9">
          <mxGeometry x="-0.9661" relative="1" as="geometry">
            <Array as="points">
              <mxPoint x="340" y="92" />
              <mxPoint x="370" y="93" />
            </Array>
            <mxPoint as="offset" />
          </mxGeometry>
        </mxCell>
        <mxCell id="FmY12MPKPxn2fFbcgKqL-54" value="&lt;div style=&quot;color: rgb(212, 212, 212); background-color: rgb(30, 30, 30); font-family: Consolas, &amp;quot;Courier New&amp;quot;, monospace; font-size: 14px; line-height: 19px;&quot;&gt;&lt;div style=&quot;line-height: 19px;&quot;&gt;&lt;div style=&quot;line-height: 19px;&quot;&gt;decoder&lt;/div&gt;&lt;/div&gt;&lt;/div&gt;" style="rounded=1;whiteSpace=wrap;html=1;absoluteArcSize=1;arcSize=14;strokeWidth=2;points=[[0,0.08,0,0,0],[0,0.15,0,0,0],[0,0.23,0,0,0],[0,0.31,0,0,0],[0,0.38,0,0,0],[0,0.46,0,0,0],[0,0.54,0,0,0],[0,0.62,0,0,0],[0,0.69,0,0,0],[0,0.77,0,0,0],[0,0.85,0,0,0],[0,0.92,0,0,0],[0.33,0,0,0,0],[0.33,1,0,0,0],[0.67,0,0,0,0],[0.67,1,0,0,0],[1,0.08,0,0,0],[1,0.15,0,0,0],[1,0.23,0,0,0],[1,0.31,0,0,0],[1,0.38,0,0,0],[1,0.46,0,0,0],[1,0.54,0,0,0],[1,0.62,0,0,0],[1,0.69,0,0,0],[1,0.77,0,0,0],[1,0.85,0,0,0],[1,0.92,0,0,0]];" parent="1" vertex="1">
          <mxGeometry x="-25" y="-100" width="100" height="250" as="geometry" />
        </mxCell>
        <mxCell id="FmY12MPKPxn2fFbcgKqL-74" value="&lt;div style=&quot;font-family: Consolas, &amp;quot;Courier New&amp;quot;, monospace; font-weight: normal; font-size: 14px; line-height: 19px;&quot;&gt;Op&lt;/div&gt;" style="text;whiteSpace=wrap;html=1;fontColor=default;labelBackgroundColor=none;" parent="1" vertex="1">
          <mxGeometry x="-22" y="-100" width="31" height="30" as="geometry" />
        </mxCell>
        <mxCell id="FmY12MPKPxn2fFbcgKqL-75" value="&lt;div style=&quot;font-family: Consolas, &amp;quot;Courier New&amp;quot;, monospace; font-weight: normal; font-size: 14px; line-height: 19px;&quot;&gt;&lt;div style=&quot;line-height: 19px;&quot;&gt;Funct&lt;/div&gt;&lt;/div&gt;" style="text;whiteSpace=wrap;html=1;labelBackgroundColor=none;fontColor=default;" parent="1" vertex="1">
          <mxGeometry x="-22" y="-80" width="42" height="30" as="geometry" />
        </mxCell>
        <mxCell id="FmY12MPKPxn2fFbcgKqL-76" value="&lt;div style=&quot;font-family: Consolas, &amp;quot;Courier New&amp;quot;, monospace; font-weight: normal; font-size: 14px; line-height: 19px;&quot;&gt;&lt;div style=&quot;line-height: 19px;&quot;&gt;Rd&lt;/div&gt;&lt;/div&gt;" style="text;whiteSpace=wrap;html=1;labelBackgroundColor=none;fontColor=default;" parent="1" vertex="1">
          <mxGeometry x="-22" y="-60" width="31" height="30" as="geometry" />
        </mxCell>
        <mxCell id="FmY12MPKPxn2fFbcgKqL-81" value="&lt;div style=&quot;font-family: Consolas, &amp;quot;Courier New&amp;quot;, monospace; font-weight: normal; font-size: 14px; line-height: 19px;&quot;&gt;ALUFlags&lt;/div&gt;" style="text;whiteSpace=wrap;html=1;fontColor=default;labelBackgroundColor=none;align=left;verticalAlign=bottom;" parent="1" vertex="1">
          <mxGeometry x="370" y="-75" width="70" height="20" as="geometry" />
        </mxCell>
        <mxCell id="FmY12MPKPxn2fFbcgKqL-82" value="&lt;div style=&quot;font-family: Consolas, &amp;quot;Courier New&amp;quot;, monospace; font-weight: normal; font-size: 14px; line-height: 19px;&quot;&gt;Cond&lt;/div&gt;" style="text;whiteSpace=wrap;html=1;fontColor=default;labelBackgroundColor=none;align=left;verticalAlign=bottom;" parent="1" vertex="1">
          <mxGeometry x="370" y="-95" width="70" height="20" as="geometry" />
        </mxCell>
        <mxCell id="FmY12MPKPxn2fFbcgKqL-83" value="reset" style="edgeStyle=orthogonalEdgeStyle;rounded=0;orthogonalLoop=1;jettySize=auto;html=1;exitX=0.67;exitY=0;exitDx=0;exitDy=0;exitPerimeter=0;startArrow=classic;startFill=1;endArrow=none;endFill=0;" parent="1" source="tbejQX52NWhL7G9Jqi1e-9" edge="1">
          <mxGeometry x="1" relative="1" as="geometry">
            <mxPoint x="437" y="-135" as="targetPoint" />
            <mxPoint x="440" y="-105" as="sourcePoint" />
            <mxPoint as="offset" />
            <Array as="points">
              <mxPoint x="437" y="-135" />
            </Array>
          </mxGeometry>
        </mxCell>
        <mxCell id="FmY12MPKPxn2fFbcgKqL-90" value="&lt;div style=&quot;font-family: Consolas, &amp;quot;Courier New&amp;quot;, monospace; font-weight: normal; font-size: 14px; line-height: 19px;&quot;&gt;&lt;div style=&quot;line-height: 19px;&quot;&gt;we&lt;/div&gt;&lt;/div&gt;" style="text;whiteSpace=wrap;html=1;labelBackgroundColor=none;fontColor=default;" parent="1" vertex="1">
          <mxGeometry x="910" y="310" width="31" height="30" as="geometry" />
        </mxCell>
        <mxCell id="FmY12MPKPxn2fFbcgKqL-91" value="&lt;div style=&quot;font-family: Consolas, &amp;quot;Courier New&amp;quot;, monospace; font-weight: normal; font-size: 14px; line-height: 19px;&quot;&gt;&lt;div style=&quot;line-height: 19px;&quot;&gt;a&lt;/div&gt;&lt;/div&gt;" style="text;whiteSpace=wrap;html=1;labelBackgroundColor=none;fontColor=default;" parent="1" vertex="1">
          <mxGeometry x="850" y="325" width="31" height="30" as="geometry" />
        </mxCell>
        <mxCell id="FmY12MPKPxn2fFbcgKqL-93" value="&lt;div style=&quot;font-family: Consolas, &amp;quot;Courier New&amp;quot;, monospace; font-weight: normal; font-size: 14px; line-height: 19px;&quot;&gt;&lt;div style=&quot;line-height: 19px;&quot;&gt;wd&lt;/div&gt;&lt;/div&gt;" style="text;whiteSpace=wrap;html=1;labelBackgroundColor=none;fontColor=default;" parent="1" vertex="1">
          <mxGeometry x="850" y="345" width="31" height="30" as="geometry" />
        </mxCell>
        <mxCell id="FmY12MPKPxn2fFbcgKqL-95" value="&lt;span style=&quot;color: rgb(0, 0, 0); font-family: Helvetica; font-size: 11px; font-style: normal; font-variant-ligatures: normal; font-variant-caps: normal; font-weight: 400; letter-spacing: normal; orphans: 2; text-align: left; text-indent: 0px; text-transform: none; widows: 2; word-spacing: 0px; -webkit-text-stroke-width: 0px; background-color: rgb(255, 255, 255); text-decoration-thickness: initial; text-decoration-style: initial; text-decoration-color: initial; float: none; display: inline !important;&quot;&gt;PCS&lt;/span&gt;" style="text;whiteSpace=wrap;html=1;" parent="1" vertex="1">
          <mxGeometry x="-630" y="220" width="60" height="20" as="geometry" />
        </mxCell>
        <mxCell id="FmY12MPKPxn2fFbcgKqL-96" value="&lt;span style=&quot;color: rgb(0, 0, 0); font-family: Helvetica; font-size: 11px; font-style: normal; font-variant-ligatures: normal; font-variant-caps: normal; font-weight: 400; letter-spacing: normal; orphans: 2; text-align: center; text-indent: 0px; text-transform: none; widows: 2; word-spacing: 0px; -webkit-text-stroke-width: 0px; background-color: rgb(255, 255, 255); text-decoration-thickness: initial; text-decoration-style: initial; text-decoration-color: initial; float: none; display: inline !important;&quot;&gt;PCPlus4[31:0]&lt;/span&gt;" style="text;whiteSpace=wrap;html=1;" parent="1" vertex="1">
          <mxGeometry x="-730" y="280" width="80" height="30" as="geometry" />
        </mxCell>
        <mxCell id="FmY12MPKPxn2fFbcgKqL-100" value="&lt;span style=&quot;color: rgb(0, 0, 0); font-family: Helvetica; font-size: 11px; font-style: normal; font-variant-ligatures: normal; font-variant-caps: normal; font-weight: 400; letter-spacing: normal; orphans: 2; text-align: center; text-indent: 0px; text-transform: none; widows: 2; word-spacing: 0px; -webkit-text-stroke-width: 0px; background-color: rgb(255, 255, 255); text-decoration-thickness: initial; text-decoration-style: initial; text-decoration-color: initial; float: none; display: inline !important;&quot;&gt;Result[31:0]&lt;/span&gt;" style="text;whiteSpace=wrap;html=1;" parent="1" vertex="1">
          <mxGeometry x="-720" y="330" width="80" height="25" as="geometry" />
        </mxCell>
        <mxCell id="FmY12MPKPxn2fFbcgKqL-101" value="&lt;div style=&quot;font-family: Consolas, &amp;quot;Courier New&amp;quot;, monospace; font-weight: normal; font-size: 14px; line-height: 19px;&quot;&gt;&lt;div style=&quot;line-height: 19px;&quot;&gt;we3&lt;/div&gt;&lt;/div&gt;" style="text;whiteSpace=wrap;html=1;labelBackgroundColor=none;fontColor=default;" parent="1" vertex="1">
          <mxGeometry x="170" y="305" width="40" height="30" as="geometry" />
        </mxCell>
        <mxCell id="FmY12MPKPxn2fFbcgKqL-103" value="&lt;div style=&quot;font-family: Consolas, &amp;quot;Courier New&amp;quot;, monospace; font-weight: normal; font-size: 14px; line-height: 19px;&quot;&gt;&lt;div style=&quot;line-height: 19px;&quot;&gt;rd2&lt;/div&gt;&lt;/div&gt;" style="text;whiteSpace=wrap;html=1;labelBackgroundColor=none;fontColor=default;" parent="1" vertex="1">
          <mxGeometry x="180" y="340" width="20" height="30" as="geometry" />
        </mxCell>
        <mxCell id="FmY12MPKPxn2fFbcgKqL-105" value="&lt;div style=&quot;font-family: Consolas, &amp;quot;Courier New&amp;quot;, monospace; font-weight: normal; font-size: 14px; line-height: 19px;&quot;&gt;&lt;div style=&quot;line-height: 19px;&quot;&gt;rd1&lt;/div&gt;&lt;/div&gt;" style="text;whiteSpace=wrap;html=1;labelBackgroundColor=none;fontColor=default;" parent="1" vertex="1">
          <mxGeometry x="180" y="320" width="20" height="30" as="geometry" />
        </mxCell>
        <mxCell id="FmY12MPKPxn2fFbcgKqL-108" value="&lt;div style=&quot;font-family: Consolas, &amp;quot;Courier New&amp;quot;, monospace; font-weight: normal; font-size: 14px; line-height: 19px;&quot;&gt;&lt;div style=&quot;line-height: 19px;&quot;&gt;r15&lt;/div&gt;&lt;/div&gt;" style="text;whiteSpace=wrap;html=1;labelBackgroundColor=none;fontColor=default;" parent="1" vertex="1">
          <mxGeometry x="110" y="410" width="20" height="30" as="geometry" />
        </mxCell>
        <mxCell id="FmY12MPKPxn2fFbcgKqL-110" value="&lt;div style=&quot;font-family: Consolas, &amp;quot;Courier New&amp;quot;, monospace; font-weight: normal; font-size: 14px; line-height: 19px;&quot;&gt;&lt;div style=&quot;line-height: 19px;&quot;&gt;wd3&lt;/div&gt;&lt;/div&gt;" style="text;whiteSpace=wrap;html=1;labelBackgroundColor=none;fontColor=default;verticalAlign=bottom;" parent="1" vertex="1">
          <mxGeometry x="110" y="400" width="20" height="20" as="geometry" />
        </mxCell>
        <mxCell id="FmY12MPKPxn2fFbcgKqL-112" value="&lt;div style=&quot;font-family: Consolas, &amp;quot;Courier New&amp;quot;, monospace; font-weight: normal; font-size: 14px; line-height: 19px;&quot;&gt;&lt;div style=&quot;line-height: 19px;&quot;&gt;wa3&lt;/div&gt;&lt;/div&gt;" style="text;whiteSpace=wrap;html=1;labelBackgroundColor=none;fontColor=default;verticalAlign=bottom;" parent="1" vertex="1">
          <mxGeometry x="110" y="375" width="20" height="30" as="geometry" />
        </mxCell>
        <mxCell id="FmY12MPKPxn2fFbcgKqL-115" value="&lt;div style=&quot;font-family: Consolas, &amp;quot;Courier New&amp;quot;, monospace; font-weight: normal; font-size: 14px; line-height: 19px;&quot;&gt;&lt;div&gt;&lt;span style=&quot;&quot;&gt;a&lt;/span&gt;&lt;/div&gt;&lt;/div&gt;" style="text;whiteSpace=wrap;html=1;labelBackgroundColor=none;fontColor=#000000;verticalAlign=middle;" parent="1" vertex="1">
          <mxGeometry x="600" y="245" width="60" height="25" as="geometry" />
        </mxCell>
        <mxCell id="FmY12MPKPxn2fFbcgKqL-116" value="&lt;div style=&quot;font-family: Consolas, &amp;quot;Courier New&amp;quot;, monospace; font-weight: normal; font-size: 14px; line-height: 19px;&quot;&gt;b&lt;/div&gt;" style="text;whiteSpace=wrap;html=1;labelBackgroundColor=none;fontColor=#000000;verticalAlign=middle;" parent="1" vertex="1">
          <mxGeometry x="600" y="270" width="60" height="25" as="geometry" />
        </mxCell>
        <mxCell id="FmY12MPKPxn2fFbcgKqL-119" value="&lt;font color=&quot;#ffbb00&quot;&gt;ALUControl&lt;/font&gt;" style="text;whiteSpace=wrap;html=1;labelBackgroundColor=none;fontColor=#000000;verticalAlign=middle;" parent="1" vertex="1">
          <mxGeometry x="610" y="230" width="60" height="15" as="geometry" />
        </mxCell>
        <mxCell id="FmY12MPKPxn2fFbcgKqL-129" value="ExtImm[31:0]" style="edgeStyle=orthogonalEdgeStyle;rounded=0;orthogonalLoop=1;jettySize=auto;html=1;exitX=1;exitY=0.5;exitDx=0;exitDy=0;exitPerimeter=0;entryX=0.25;entryY=1;entryDx=0;entryDy=0;entryPerimeter=0;align=left;" parent="1" source="FmY12MPKPxn2fFbcgKqL-122" target="FmY12MPKPxn2fFbcgKqL-127" edge="1">
          <mxGeometry x="-0.8193" y="1" relative="1" as="geometry">
            <mxPoint as="offset" />
          </mxGeometry>
        </mxCell>
        <mxCell id="FmY12MPKPxn2fFbcgKqL-122" value="&lt;div style=&quot;color: rgb(212, 212, 212); background-color: rgb(30, 30, 30); font-family: Consolas, &amp;quot;Courier New&amp;quot;, monospace; font-size: 14px; line-height: 19px;&quot;&gt;&lt;div style=&quot;line-height: 19px;&quot;&gt;&lt;div style=&quot;line-height: 19px;&quot;&gt;extend&lt;/div&gt;&lt;/div&gt;&lt;div style=&quot;line-height: 19px;&quot;&gt;&lt;div style=&quot;line-height: 19px;&quot;&gt;ext&lt;/div&gt;&lt;/div&gt;&lt;/div&gt;" style="whiteSpace=wrap;html=1;aspect=fixed;strokeColor=default;fontFamily=Helvetica;fontSize=12;fontColor=default;fillColor=default;points=[[0,0.25,0,0,0],[0,0.5,0,0,0],[0,0.75,0,0,0],[0.5,0,0,0,0],[0.5,1,0,0,0],[1,0.5,0,0,0]];rotation=0;" parent="1" vertex="1">
          <mxGeometry x="276.67" y="484.3" width="83.33" height="50" as="geometry" />
        </mxCell>
        <mxCell id="FmY12MPKPxn2fFbcgKqL-126" value="ImmSrc[1:0]" style="text;whiteSpace=wrap;labelBackgroundColor=default;" parent="1" vertex="1">
          <mxGeometry x="290" y="450" width="70" height="30" as="geometry" />
        </mxCell>
        <mxCell id="FmY12MPKPxn2fFbcgKqL-134" style="edgeStyle=orthogonalEdgeStyle;rounded=0;orthogonalLoop=1;jettySize=auto;html=1;exitX=0.5;exitY=0;exitDx=0;exitDy=0;exitPerimeter=0;entryX=0;entryY=0.5;entryDx=0;entryDy=0;" parent="1" source="FmY12MPKPxn2fFbcgKqL-127" target="FmY12MPKPxn2fFbcgKqL-116" edge="1">
          <mxGeometry relative="1" as="geometry">
            <Array as="points">
              <mxPoint x="580" y="484" />
              <mxPoint x="580" y="282" />
            </Array>
          </mxGeometry>
        </mxCell>
        <mxCell id="FmY12MPKPxn2fFbcgKqL-137" value="SrcB[31:0]" style="edgeStyle=orthogonalEdgeStyle;rounded=0;orthogonalLoop=1;jettySize=auto;html=1;exitX=0.5;exitY=0;exitDx=0;exitDy=0;exitPerimeter=0;entryX=0.25;entryY=1;entryDx=0;entryDy=0;entryPerimeter=0;align=left;" parent="1" source="FmY12MPKPxn2fFbcgKqL-127" target="FmY12MPKPxn2fFbcgKqL-42" edge="1">
          <mxGeometry x="-0.9744" relative="1" as="geometry">
            <Array as="points">
              <mxPoint x="580" y="484" />
              <mxPoint x="580" y="559" />
            </Array>
            <mxPoint as="offset" />
          </mxGeometry>
        </mxCell>
        <mxCell id="FmY12MPKPxn2fFbcgKqL-127" value="&lt;div style=&quot;background-color: rgb(30, 30, 30); font-family: Consolas, &amp;quot;Courier New&amp;quot;, monospace; font-size: 14px; line-height: 19px;&quot;&gt;&lt;div style=&quot;line-height: 19px;&quot;&gt;&lt;font color=&quot;#ffffff&quot;&gt;mux2&lt;/font&gt;&lt;/div&gt;&lt;/div&gt;&lt;div style=&quot;background-color: rgb(30, 30, 30); font-family: Consolas, &amp;quot;Courier New&amp;quot;, monospace; font-size: 14px; line-height: 19px;&quot;&gt;&lt;div style=&quot;line-height: 19px;&quot;&gt;&lt;div style=&quot;color: rgb(212, 212, 212); line-height: 19px;&quot;&gt;srcbmux&lt;/div&gt;&lt;/div&gt;&lt;/div&gt;" style="verticalLabelPosition=middle;verticalAlign=middle;html=1;shape=trapezoid;perimeter=trapezoidPerimeter;whiteSpace=wrap;size=0.125;arcSize=10;flipV=1;labelPosition=center;align=center;fontFamily=Helvetica;fontSize=12;direction=south;rounded=0;shadow=0;points=[[0,0.5,0,0,0],[0.25,1,0,0,0],[0.5,0,0,0,0],[0.75,1,0,0,0],[1,0.5,0,0,0]];" parent="1" vertex="1">
          <mxGeometry x="470" y="434.3" width="45" height="100" as="geometry" />
        </mxCell>
        <mxCell id="FmY12MPKPxn2fFbcgKqL-133" value="&lt;span style=&quot;color: rgb(0, 0, 0); font-family: Helvetica; font-size: 11px; font-style: normal; font-variant-ligatures: normal; font-variant-caps: normal; font-weight: 400; letter-spacing: normal; orphans: 2; text-align: left; text-indent: 0px; text-transform: none; widows: 2; word-spacing: 0px; -webkit-text-stroke-width: 0px; background-color: rgb(255, 255, 255); text-decoration-thickness: initial; text-decoration-style: initial; text-decoration-color: initial; float: none; display: inline !important;&quot;&gt;ALUSrc&lt;/span&gt;" style="text;whiteSpace=wrap;html=1;" parent="1" vertex="1">
          <mxGeometry x="472.5" y="395" width="40" height="30" as="geometry" />
        </mxCell>
        <mxCell id="FmY12MPKPxn2fFbcgKqL-143" value="RegSrc[0]" style="text;whiteSpace=wrap;labelBackgroundColor=default;" parent="1" vertex="1">
          <mxGeometry x="-127.5" y="250" width="60" height="20" as="geometry" />
        </mxCell>
        <mxCell id="FmY12MPKPxn2fFbcgKqL-144" value="RegSrc[1]" style="text;whiteSpace=wrap;labelBackgroundColor=default;" parent="1" vertex="1">
          <mxGeometry x="-65" y="345" width="60" height="20" as="geometry" />
        </mxCell>
        <mxCell id="FmY12MPKPxn2fFbcgKqL-145" value="&lt;span style=&quot;color: rgb(0, 0, 0); font-family: Helvetica; font-size: 11px; font-style: normal; font-variant-ligatures: normal; font-variant-caps: normal; font-weight: 400; letter-spacing: normal; orphans: 2; text-align: left; text-indent: 0px; text-transform: none; widows: 2; word-spacing: 0px; -webkit-text-stroke-width: 0px; background-color: rgb(255, 255, 255); text-decoration-thickness: initial; text-decoration-style: initial; text-decoration-color: initial; float: none; display: inline !important;&quot;&gt;MemtoReg&lt;/span&gt;" style="text;whiteSpace=wrap;html=1;" parent="1" vertex="1">
          <mxGeometry x="1072.5" y="305" width="60" height="20" as="geometry" />
        </mxCell>
        <mxCell id="FmY12MPKPxn2fFbcgKqL-157" value="clk" style="edgeStyle=orthogonalEdgeStyle;rounded=0;orthogonalLoop=1;jettySize=auto;html=1;exitX=0.33;exitY=0;exitDx=0;exitDy=0;exitPerimeter=0;startArrow=classic;startFill=1;endArrow=none;endFill=0;" parent="1" edge="1">
          <mxGeometry x="1" relative="1" as="geometry">
            <mxPoint x="-476.8542105263156" y="255" as="targetPoint" />
            <mxPoint x="-477.17" y="290" as="sourcePoint" />
            <mxPoint as="offset" />
          </mxGeometry>
        </mxCell>
        <mxCell id="FmY12MPKPxn2fFbcgKqL-158" value="reset" style="edgeStyle=orthogonalEdgeStyle;rounded=0;orthogonalLoop=1;jettySize=auto;html=1;exitX=0.67;exitY=0;exitDx=0;exitDy=0;exitPerimeter=0;startArrow=classic;startFill=1;endArrow=none;endFill=0;" parent="1" edge="1">
          <mxGeometry x="1" relative="1" as="geometry">
            <mxPoint x="-443.17" y="255" as="targetPoint" />
            <mxPoint x="-443.17" y="290" as="sourcePoint" />
            <mxPoint as="offset" />
            <Array as="points">
              <mxPoint x="-443.17" y="255" />
            </Array>
          </mxGeometry>
        </mxCell>
        <mxCell id="FmY12MPKPxn2fFbcgKqL-160" value="" style="endArrow=none;html=1;rounded=0;fontStyle=0;strokeWidth=5;" parent="1" edge="1">
          <mxGeometry width="50" height="50" relative="1" as="geometry">
            <mxPoint x="-220" y="530" as="sourcePoint" />
            <mxPoint x="-220" y="-130" as="targetPoint" />
          </mxGeometry>
        </mxCell>
        <mxCell id="FmY12MPKPxn2fFbcgKqL-161" value="&lt;span style=&quot;color: rgb(0, 0, 0); font-family: Helvetica; font-size: 11px; font-style: normal; font-variant-ligatures: normal; font-variant-caps: normal; letter-spacing: normal; orphans: 2; text-align: center; text-indent: 0px; text-transform: none; widows: 2; word-spacing: 0px; -webkit-text-stroke-width: 0px; text-decoration-thickness: initial; text-decoration-style: initial; text-decoration-color: initial; float: none; display: inline !important;&quot;&gt;Instr&lt;/span&gt;" style="text;whiteSpace=wrap;html=1;rotation=270;labelBackgroundColor=none;fontStyle=1" parent="1" vertex="1">
          <mxGeometry x="-262" y="240" width="50" height="20" as="geometry" />
        </mxCell>
        <mxCell id="FmY12MPKPxn2fFbcgKqL-164" value="&lt;font color=&quot;#3399ff&quot;&gt;ByteFlag&lt;/font&gt;" style="text;html=1;align=center;verticalAlign=middle;resizable=0;points=[];autosize=1;strokeColor=none;fillColor=none;labelBackgroundColor=default;" parent="1" vertex="1">
          <mxGeometry x="840" y="250" width="70" height="30" as="geometry" />
        </mxCell>
        <mxCell id="HjcfJML174UiBPMMvX2T-3" value="&lt;font color=&quot;#ff0000&quot;&gt;LinkFlag&lt;/font&gt;" style="text;html=1;align=center;verticalAlign=bottom;resizable=0;points=[];autosize=1;strokeColor=none;fillColor=none;labelBackgroundColor=default;" vertex="1" parent="1">
          <mxGeometry x="210" y="360" width="70" height="30" as="geometry" />
        </mxCell>
      </root>
    </mxGraphModel>
  </diagram>
</mxfile>
